# xmcd
#
# Track frame offsets:
#	150
#	11970
#	39877
#	67182
#	82218
#	103868
#	117515
#	134852
#	159500
#	178743
#	213984
#	229239
#	247482
#	260704
#	276498
#
# Disc length: 4062 seconds
#
# Revision: 0
# Processed by: cddbd v1.5.1PL0 Copyright (c) Steve Scherf et al.
# Submitted via: dBpowerAMP V4.0
#
DISCID=f80fdc0f
DTITLE=BluesAlive VIII - BluesAlive VIII
DYEAR=2003
DGENRE=Blues
TTITLE0=Krausberry - Podily
TTITLE1=The Kinsey Report - Rock Me Baby
TTITLE2=Hans Theessink - Maybellene
TTITLE3=Vaclav Koubek - Pojd bliz
TTITLE4=Blues Fools - May Baby Caught The Rain
TTITLE5=Bluessweiser - Vovzduchu je napetie
TTITLE6=Eric Wood - Forgotten Blues
TTITLE7=Ester Kocickova Lubomir Nohavica - Seznam Schindlerove
TTITLE8=Roadcaster - Wastin My Time
TTITLE9=Stan The Man and Betty S - Yours Gonna Miss me
TTITLE10=Rene Lacko - Mary Had A Little Lamb
TTITLE11=Ta Jana z Velke Ohrady - Co bylo bylo
TTITLE12=Fatal Shore - Mindless
TTITLE13=Zaha - Dneska
TTITLE14=Chris Thomas King - Thrill Is Gone
EXTD=
EXTT0=
EXTT1=
EXTT2=
EXTT3=
EXTT4=
EXTT5=
EXTT6=
EXTT7=
EXTT8=
EXTT9=
EXTT10=
EXTT11=
EXTT12=
EXTT13=
EXTT14=
PLAYORDER=
